<svg width="314" height="13" viewBox="0 0 314 13" fill="none" xmlns="http://www.w3.org/2000/svg">
<path d="M1.20312 1.46875V10H0.0722656V1.46875H1.20312ZM10.7705 8.91602V5.65234C10.7705 5.40234 10.7198 5.18555 10.6182 5.00195C10.5205 4.81445 10.3721 4.66992 10.1729 4.56836C9.97367 4.4668 9.72758 4.41602 9.43461 4.41602C9.16117 4.41602 8.92094 4.46289 8.71391 4.55664C8.51078 4.65039 8.35063 4.77344 8.23344 4.92578C8.12016 5.07812 8.06352 5.24219 8.06352 5.41797H6.97953C6.97953 5.19141 7.03813 4.9668 7.15531 4.74414C7.2725 4.52148 7.44047 4.32031 7.65922 4.14062C7.88188 3.95703 8.1475 3.8125 8.45609 3.70703C8.76859 3.59766 9.11625 3.54297 9.49906 3.54297C9.96 3.54297 10.3663 3.62109 10.7178 3.77734C11.0733 3.93359 11.3506 4.16992 11.5498 4.48633C11.753 4.79883 11.8545 5.19141 11.8545 5.66406V8.61719C11.8545 8.82812 11.8721 9.05273 11.9073 9.29102C11.9463 9.5293 12.003 9.73438 12.0772 9.90625V10H10.9463C10.8916 9.875 10.8487 9.70898 10.8174 9.50195C10.7862 9.29102 10.7705 9.0957 10.7705 8.91602ZM10.958 6.15625L10.9698 6.91797H9.87406C9.56547 6.91797 9.29008 6.94336 9.04789 6.99414C8.8057 7.04102 8.60258 7.11328 8.43852 7.21094C8.27445 7.30859 8.14945 7.43164 8.06352 7.58008C7.97758 7.72461 7.93461 7.89453 7.93461 8.08984C7.93461 8.28906 7.97953 8.4707 8.06938 8.63477C8.15922 8.79883 8.29398 8.92969 8.47367 9.02734C8.65727 9.12109 8.88188 9.16797 9.1475 9.16797C9.47953 9.16797 9.7725 9.09766 10.0264 8.95703C10.2803 8.81641 10.4815 8.64453 10.6299 8.44141C10.7823 8.23828 10.8643 8.04102 10.876 7.84961L11.3389 8.37109C11.3116 8.53516 11.2373 8.7168 11.1163 8.91602C10.9952 9.11523 10.833 9.30664 10.6299 9.49023C10.4307 9.66992 10.1924 9.82031 9.91508 9.94141C9.64164 10.0586 9.33305 10.1172 8.9893 10.1172C8.55961 10.1172 8.18266 10.0332 7.85844 9.86523C7.53813 9.69727 7.28813 9.47266 7.10844 9.19141C6.93266 8.90625 6.84477 8.58789 6.84477 8.23633C6.84477 7.89648 6.91117 7.59766 7.04398 7.33984C7.1768 7.07812 7.3682 6.86133 7.6182 6.68945C7.8682 6.51367 8.16898 6.38086 8.52055 6.29102C8.87211 6.20117 9.26469 6.15625 9.69828 6.15625H10.958ZM16.5767 9.22656C16.8345 9.22656 17.0728 9.17383 17.2916 9.06836C17.5103 8.96289 17.69 8.81836 17.8306 8.63477C17.9712 8.44727 18.0513 8.23438 18.0709 7.99609H19.1021C19.0826 8.37109 18.9556 8.7207 18.7212 9.04492C18.4908 9.36523 18.188 9.625 17.813 9.82422C17.438 10.0195 17.0259 10.1172 16.5767 10.1172C16.1002 10.1172 15.6841 10.0332 15.3287 9.86523C14.9771 9.69727 14.6841 9.4668 14.4498 9.17383C14.2193 8.88086 14.0455 8.54492 13.9283 8.16602C13.815 7.7832 13.7584 7.37891 13.7584 6.95312V6.70703C13.7584 6.28125 13.815 5.87891 13.9283 5.5C14.0455 5.11719 14.2193 4.7793 14.4498 4.48633C14.6841 4.19336 14.9771 3.96289 15.3287 3.79492C15.6841 3.62695 16.1002 3.54297 16.5767 3.54297C17.0728 3.54297 17.5064 3.64453 17.8775 3.84766C18.2486 4.04688 18.5396 4.32031 18.7505 4.66797C18.9654 5.01172 19.0826 5.40234 19.1021 5.83984H18.0709C18.0513 5.57812 17.9771 5.3418 17.8482 5.13086C17.7232 4.91992 17.5513 4.75195 17.3326 4.62695C17.1177 4.49805 16.8658 4.43359 16.5767 4.43359C16.2447 4.43359 15.9654 4.5 15.7388 4.63281C15.5162 4.76172 15.3384 4.9375 15.2056 5.16016C15.0767 5.37891 14.983 5.62305 14.9244 5.89258C14.8697 6.1582 14.8423 6.42969 14.8423 6.70703V6.95312C14.8423 7.23047 14.8697 7.50391 14.9244 7.77344C14.9791 8.04297 15.0709 8.28711 15.1998 8.50586C15.3326 8.72461 15.5103 8.90039 15.733 9.0332C15.9595 9.16211 16.2408 9.22656 16.5767 9.22656ZM23.338 9.22656C23.5958 9.22656 23.8341 9.17383 24.0528 9.06836C24.2716 8.96289 24.4513 8.81836 24.5919 8.63477C24.7325 8.44727 24.8126 8.23438 24.8321 7.99609H25.8634C25.8438 8.37109 25.7169 8.7207 25.4825 9.04492C25.252 9.36523 24.9493 9.625 24.5743 9.82422C24.1993 10.0195 23.7872 10.1172 23.338 10.1172C22.8614 10.1172 22.4454 10.0332 22.0899 9.86523C21.7384 9.69727 21.4454 9.4668 21.211 9.17383C20.9805 8.88086 20.8067 8.54492 20.6895 8.16602C20.5763 7.7832 20.5196 7.37891 20.5196 6.95312V6.70703C20.5196 6.28125 20.5763 5.87891 20.6895 5.5C20.8067 5.11719 20.9805 4.7793 21.211 4.48633C21.4454 4.19336 21.7384 3.96289 22.0899 3.79492C22.4454 3.62695 22.8614 3.54297 23.338 3.54297C23.8341 3.54297 24.2677 3.64453 24.6388 3.84766C25.0098 4.04688 25.3009 4.32031 25.5118 4.66797C25.7266 5.01172 25.8438 5.40234 25.8634 5.83984H24.8321C24.8126 5.57812 24.7384 5.3418 24.6095 5.13086C24.4845 4.91992 24.3126 4.75195 24.0938 4.62695C23.879 4.49805 23.627 4.43359 23.338 4.43359C23.0059 4.43359 22.7266 4.5 22.5001 4.63281C22.2774 4.76172 22.0997 4.9375 21.9669 5.16016C21.838 5.37891 21.7442 5.62305 21.6856 5.89258C21.6309 6.1582 21.6036 6.42969 21.6036 6.70703V6.95312C21.6036 7.23047 21.6309 7.50391 21.6856 7.77344C21.7403 8.04297 21.8321 8.28711 21.961 8.50586C22.0938 8.72461 22.2716 8.90039 22.4942 9.0332C22.7208 9.16211 23.002 9.22656 23.338 9.22656ZM30.193 10.1172C29.7516 10.1172 29.3512 10.043 28.9918 9.89453C28.6363 9.74219 28.3297 9.5293 28.0719 9.25586C27.818 8.98242 27.6227 8.6582 27.4859 8.2832C27.3492 7.9082 27.2809 7.49805 27.2809 7.05273V6.80664C27.2809 6.29102 27.357 5.83203 27.5094 5.42969C27.6617 5.02344 27.8687 4.67969 28.1305 4.39844C28.3922 4.11719 28.6891 3.9043 29.0211 3.75977C29.3531 3.61523 29.6969 3.54297 30.0523 3.54297C30.5055 3.54297 30.8961 3.62109 31.2242 3.77734C31.5562 3.93359 31.8277 4.15234 32.0387 4.43359C32.2496 4.71094 32.4059 5.03906 32.5074 5.41797C32.609 5.79297 32.6598 6.20312 32.6598 6.64844V7.13477H27.9254V6.25H31.5758V6.16797C31.5602 5.88672 31.5016 5.61328 31.4 5.34766C31.3023 5.08203 31.1461 4.86328 30.9312 4.69141C30.7164 4.51953 30.4234 4.43359 30.0523 4.43359C29.8062 4.43359 29.5797 4.48633 29.3727 4.5918C29.1656 4.69336 28.9879 4.8457 28.8395 5.04883C28.691 5.25195 28.5758 5.5 28.4937 5.79297C28.4117 6.08594 28.3707 6.42383 28.3707 6.80664V7.05273C28.3707 7.35352 28.4117 7.63672 28.4937 7.90234C28.5797 8.16406 28.7027 8.39453 28.8629 8.59375C29.027 8.79297 29.2242 8.94922 29.4547 9.0625C29.6891 9.17578 29.9547 9.23242 30.2516 9.23242C30.6344 9.23242 30.9586 9.1543 31.2242 8.99805C31.4898 8.8418 31.7223 8.63281 31.9215 8.37109L32.5777 8.89258C32.441 9.09961 32.2672 9.29688 32.0562 9.48438C31.8453 9.67188 31.5855 9.82422 31.277 9.94141C30.9723 10.0586 30.6109 10.1172 30.193 10.1172ZM35.4894 4.87891V12.4375H34.3995V3.66016H35.3956L35.4894 4.87891ZM39.7609 6.77734V6.90039C39.7609 7.36133 39.7062 7.78906 39.5968 8.18359C39.4874 8.57422 39.3273 8.91406 39.1163 9.20312C38.9093 9.49219 38.6534 9.7168 38.3488 9.87695C38.0441 10.0371 37.6945 10.1172 37.2999 10.1172C36.8976 10.1172 36.5421 10.0508 36.2335 9.91797C35.9249 9.78516 35.6632 9.5918 35.4484 9.33789C35.2335 9.08398 35.0616 8.7793 34.9327 8.42383C34.8077 8.06836 34.7218 7.66797 34.6749 7.22266V6.56641C34.7218 6.09766 34.8097 5.67773 34.9386 5.30664C35.0675 4.93555 35.2374 4.61914 35.4484 4.35742C35.6632 4.0918 35.923 3.89062 36.2277 3.75391C36.5323 3.61328 36.8839 3.54297 37.2823 3.54297C37.6808 3.54297 38.0343 3.62109 38.3429 3.77734C38.6515 3.92969 38.9113 4.14844 39.1222 4.43359C39.3331 4.71875 39.4913 5.06055 39.5968 5.45898C39.7062 5.85352 39.7609 6.29297 39.7609 6.77734ZM38.671 6.90039V6.77734C38.671 6.46094 38.6378 6.16406 38.5714 5.88672C38.505 5.60547 38.4015 5.35938 38.2609 5.14844C38.1241 4.93359 37.9484 4.76562 37.7335 4.64453C37.5187 4.51953 37.2628 4.45703 36.9659 4.45703C36.6925 4.45703 36.4542 4.50391 36.2511 4.59766C36.0519 4.69141 35.882 4.81836 35.7413 4.97852C35.6007 5.13477 35.4855 5.31445 35.3956 5.51758C35.3097 5.7168 35.2452 5.92383 35.2023 6.13867V7.65625C35.2804 7.92969 35.3898 8.1875 35.5304 8.42969C35.671 8.66797 35.8585 8.86133 36.0929 9.00977C36.3273 9.1543 36.6222 9.22656 36.9777 9.22656C37.2706 9.22656 37.5226 9.16602 37.7335 9.04492C37.9484 8.91992 38.1241 8.75 38.2609 8.53516C38.4015 8.32031 38.505 8.07422 38.5714 7.79688C38.6378 7.51562 38.671 7.2168 38.671 6.90039ZM44.278 3.66016V4.49219H40.8502V3.66016H44.278ZM42.0104 2.11914H43.0944V8.42969C43.0944 8.64453 43.1276 8.80664 43.194 8.91602C43.2604 9.02539 43.3463 9.09766 43.4518 9.13281C43.5573 9.16797 43.6705 9.18555 43.7916 9.18555C43.8815 9.18555 43.9752 9.17773 44.0729 9.16211C44.1745 9.14258 44.2506 9.12695 44.3014 9.11523L44.3073 10C44.2213 10.0273 44.108 10.0527 43.9674 10.0762C43.8307 10.1035 43.6647 10.1172 43.4694 10.1172C43.2038 10.1172 42.9596 10.0645 42.737 9.95898C42.5143 9.85352 42.3366 9.67773 42.2038 9.43164C42.0748 9.18164 42.0104 8.8457 42.0104 8.42383V2.11914ZM52.1403 3.66016V4.49219H48.7126V3.66016H52.1403ZM49.8727 2.11914H50.9567V8.42969C50.9567 8.64453 50.9899 8.80664 51.0563 8.91602C51.1227 9.02539 51.2087 9.09766 51.3141 9.13281C51.4196 9.16797 51.5329 9.18555 51.654 9.18555C51.7438 9.18555 51.8376 9.17773 51.9352 9.16211C52.0368 9.14258 52.113 9.12695 52.1637 9.11523L52.1696 10C52.0837 10.0273 51.9704 10.0527 51.8298 10.0762C51.693 10.1035 51.527 10.1172 51.3317 10.1172C51.0661 10.1172 50.822 10.0645 50.5993 9.95898C50.3766 9.85352 50.1989 9.67773 50.0661 9.43164C49.9372 9.18164 49.8727 8.8457 49.8727 8.42383V2.11914ZM54.9758 1V10H53.8918V1H54.9758ZM54.718 6.58984L54.2668 6.57227C54.2707 6.13867 54.3352 5.73828 54.4602 5.37109C54.5852 5 54.7609 4.67773 54.9875 4.4043C55.2141 4.13086 55.4836 3.91992 55.7961 3.77148C56.1125 3.61914 56.4621 3.54297 56.8449 3.54297C57.1574 3.54297 57.4387 3.58594 57.6887 3.67188C57.9387 3.75391 58.1516 3.88672 58.3273 4.07031C58.507 4.25391 58.6437 4.49219 58.7375 4.78516C58.8312 5.07422 58.8781 5.42773 58.8781 5.8457V10H57.7883V5.83398C57.7883 5.50195 57.7395 5.23633 57.6418 5.03711C57.5441 4.83398 57.4016 4.6875 57.2141 4.59766C57.0266 4.50391 56.7961 4.45703 56.5227 4.45703C56.2531 4.45703 56.007 4.51367 55.7844 4.62695C55.5656 4.74023 55.3762 4.89648 55.216 5.0957C55.0598 5.29492 54.9367 5.52344 54.8469 5.78125C54.7609 6.03516 54.718 6.30469 54.718 6.58984ZM63.612 10.1172C63.1706 10.1172 62.7702 10.043 62.4109 9.89453C62.0554 9.74219 61.7487 9.5293 61.4909 9.25586C61.237 8.98242 61.0417 8.6582 60.905 8.2832C60.7683 7.9082 60.6999 7.49805 60.6999 7.05273V6.80664C60.6999 6.29102 60.7761 5.83203 60.9284 5.42969C61.0808 5.02344 61.2878 4.67969 61.5495 4.39844C61.8112 4.11719 62.1081 3.9043 62.4402 3.75977C62.7722 3.61523 63.1159 3.54297 63.4714 3.54297C63.9245 3.54297 64.3152 3.62109 64.6433 3.77734C64.9753 3.93359 65.2468 4.15234 65.4577 4.43359C65.6687 4.71094 65.8249 5.03906 65.9265 5.41797C66.028 5.79297 66.0788 6.20312 66.0788 6.64844V7.13477H61.3445V6.25H64.9948V6.16797C64.9792 5.88672 64.9206 5.61328 64.8191 5.34766C64.7214 5.08203 64.5652 4.86328 64.3503 4.69141C64.1355 4.51953 63.8425 4.43359 63.4714 4.43359C63.2253 4.43359 62.9987 4.48633 62.7917 4.5918C62.5847 4.69336 62.407 4.8457 62.2585 5.04883C62.1101 5.25195 61.9948 5.5 61.9128 5.79297C61.8308 6.08594 61.7898 6.42383 61.7898 6.80664V7.05273C61.7898 7.35352 61.8308 7.63672 61.9128 7.90234C61.9987 8.16406 62.1218 8.39453 62.282 8.59375C62.446 8.79297 62.6433 8.94922 62.8737 9.0625C63.1081 9.17578 63.3737 9.23242 63.6706 9.23242C64.0534 9.23242 64.3777 9.1543 64.6433 8.99805C64.9089 8.8418 65.1413 8.63281 65.3405 8.37109L65.9968 8.89258C65.8601 9.09961 65.6862 9.29688 65.4753 9.48438C65.2644 9.67188 65.0046 9.82422 64.696 9.94141C64.3913 10.0586 64.03 10.1172 63.612 10.1172ZM73.9353 3.66016V4.49219H70.5076V3.66016H73.9353ZM71.6677 2.11914H72.7517V8.42969C72.7517 8.64453 72.7849 8.80664 72.8513 8.91602C72.9177 9.02539 73.0037 9.09766 73.1091 9.13281C73.2146 9.16797 73.3279 9.18555 73.449 9.18555C73.5388 9.18555 73.6326 9.17773 73.7302 9.16211C73.8318 9.14258 73.908 9.12695 73.9587 9.11523L73.9646 10C73.8787 10.0273 73.7654 10.0527 73.6248 10.0762C73.488 10.1035 73.322 10.1172 73.1267 10.1172C72.8611 10.1172 72.617 10.0645 72.3943 9.95898C72.1716 9.85352 71.9939 9.67773 71.8611 9.43164C71.7322 9.18164 71.6677 8.8457 71.6677 8.42383V2.11914ZM78.3177 10.1172C77.8763 10.1172 77.4759 10.043 77.1165 9.89453C76.761 9.74219 76.4544 9.5293 76.1966 9.25586C75.9427 8.98242 75.7473 8.6582 75.6106 8.2832C75.4739 7.9082 75.4055 7.49805 75.4055 7.05273V6.80664C75.4055 6.29102 75.4817 5.83203 75.6341 5.42969C75.7864 5.02344 75.9934 4.67969 76.2552 4.39844C76.5169 4.11719 76.8138 3.9043 77.1458 3.75977C77.4778 3.61523 77.8216 3.54297 78.177 3.54297C78.6302 3.54297 79.0208 3.62109 79.3489 3.77734C79.6809 3.93359 79.9524 4.15234 80.1634 4.43359C80.3743 4.71094 80.5305 5.03906 80.6321 5.41797C80.7337 5.79297 80.7845 6.20312 80.7845 6.64844V7.13477H76.0501V6.25H79.7005V6.16797C79.6848 5.88672 79.6263 5.61328 79.5247 5.34766C79.427 5.08203 79.2708 4.86328 79.0559 4.69141C78.8411 4.51953 78.5481 4.43359 78.177 4.43359C77.9309 4.43359 77.7044 4.48633 77.4973 4.5918C77.2903 4.69336 77.1126 4.8457 76.9641 5.04883C76.8157 5.25195 76.7005 5.5 76.6184 5.79297C76.5364 6.08594 76.4954 6.42383 76.4954 6.80664V7.05273C76.4954 7.35352 76.5364 7.63672 76.6184 7.90234C76.7044 8.16406 76.8274 8.39453 76.9876 8.59375C77.1516 8.79297 77.3489 8.94922 77.5794 9.0625C77.8138 9.17578 78.0794 9.23242 78.3763 9.23242C78.7591 9.23242 79.0833 9.1543 79.3489 8.99805C79.6145 8.8418 79.847 8.63281 80.0462 8.37109L80.7024 8.89258C80.5657 9.09961 80.3919 9.29688 80.1809 9.48438C79.97 9.67188 79.7102 9.82422 79.4016 9.94141C79.097 10.0586 78.7356 10.1172 78.3177 10.1172ZM83.6141 4.65625V10H82.5301V3.66016H83.5848L83.6141 4.65625ZM85.5945 3.625L85.5887 4.63281C85.4988 4.61328 85.4129 4.60156 85.3309 4.59766C85.2527 4.58984 85.1629 4.58594 85.0613 4.58594C84.8113 4.58594 84.5906 4.625 84.3992 4.70312C84.2078 4.78125 84.0457 4.89062 83.9129 5.03125C83.7801 5.17188 83.6746 5.33984 83.5965 5.53516C83.5223 5.72656 83.4734 5.9375 83.45 6.16797L83.1453 6.34375C83.1453 5.96094 83.1824 5.60156 83.2566 5.26562C83.3348 4.92969 83.4539 4.63281 83.6141 4.375C83.7742 4.11328 83.9773 3.91016 84.2234 3.76562C84.4734 3.61719 84.7703 3.54297 85.1141 3.54297C85.1922 3.54297 85.282 3.55273 85.3836 3.57227C85.4852 3.58789 85.5555 3.60547 85.5945 3.625ZM88.1546 4.91992V10H87.0648V3.66016H88.096L88.1546 4.91992ZM87.932 6.58984L87.428 6.57227C87.432 6.13867 87.4886 5.73828 87.598 5.37109C87.7073 5 87.8695 4.67773 88.0843 4.4043C88.2991 4.13086 88.5667 3.91992 88.887 3.77148C89.2073 3.61914 89.5784 3.54297 90.0003 3.54297C90.2972 3.54297 90.5706 3.58594 90.8206 3.67188C91.0706 3.75391 91.2874 3.88477 91.471 4.06445C91.6546 4.24414 91.7972 4.47461 91.8988 4.75586C92.0003 5.03711 92.0511 5.37695 92.0511 5.77539V10H90.9671V5.82812C90.9671 5.49609 90.9105 5.23047 90.7972 5.03125C90.6878 4.83203 90.5316 4.6875 90.3284 4.59766C90.1253 4.50391 89.887 4.45703 89.6136 4.45703C89.2933 4.45703 89.0257 4.51367 88.8109 4.62695C88.596 4.74023 88.4241 4.89648 88.2952 5.0957C88.1663 5.29492 88.0726 5.52344 88.014 5.78125C87.9593 6.03516 87.932 6.30469 87.932 6.58984ZM92.0394 5.99219L91.3128 6.21484C91.3167 5.86719 91.3734 5.5332 91.4827 5.21289C91.596 4.89258 91.7581 4.60742 91.9691 4.35742C92.1839 4.10742 92.4476 3.91016 92.7601 3.76562C93.0726 3.61719 93.43 3.54297 93.8323 3.54297C94.1722 3.54297 94.473 3.58789 94.7347 3.67773C95.0003 3.76758 95.223 3.90625 95.4027 4.09375C95.5863 4.27734 95.7249 4.51367 95.8187 4.80273C95.9124 5.0918 95.9593 5.43555 95.9593 5.83398V10H94.8695V5.82227C94.8695 5.4668 94.8128 5.19141 94.6995 4.99609C94.5902 4.79688 94.4339 4.6582 94.2308 4.58008C94.0316 4.49805 93.7933 4.45703 93.5159 4.45703C93.2777 4.45703 93.0667 4.49805 92.8831 4.58008C92.6995 4.66211 92.5452 4.77539 92.4202 4.91992C92.2952 5.06055 92.1995 5.22266 92.1331 5.40625C92.0706 5.58984 92.0394 5.78516 92.0394 5.99219ZM101.771 8.31836C101.771 8.16211 101.736 8.01758 101.666 7.88477C101.599 7.74805 101.461 7.625 101.25 7.51562C101.043 7.40234 100.73 7.30469 100.312 7.22266C99.9608 7.14844 99.6424 7.06055 99.3573 6.95898C99.076 6.85742 98.8358 6.73438 98.6366 6.58984C98.4412 6.44531 98.2909 6.27539 98.1854 6.08008C98.0799 5.88477 98.0272 5.65625 98.0272 5.39453C98.0272 5.14453 98.0819 4.9082 98.1912 4.68555C98.3045 4.46289 98.4627 4.26562 98.6659 4.09375C98.8729 3.92188 99.1209 3.78711 99.41 3.68945C99.6991 3.5918 100.021 3.54297 100.377 3.54297C100.885 3.54297 101.318 3.63281 101.678 3.8125C102.037 3.99219 102.312 4.23242 102.504 4.5332C102.695 4.83008 102.791 5.16016 102.791 5.52344H101.707C101.707 5.34766 101.654 5.17773 101.549 5.01367C101.447 4.8457 101.297 4.70703 101.097 4.59766C100.902 4.48828 100.662 4.43359 100.377 4.43359C100.076 4.43359 99.8319 4.48047 99.6444 4.57422C99.4608 4.66406 99.326 4.7793 99.2401 4.91992C99.158 5.06055 99.117 5.20898 99.117 5.36523C99.117 5.48242 99.1366 5.58789 99.1756 5.68164C99.2186 5.77148 99.2928 5.85547 99.3983 5.93359C99.5037 6.00781 99.6522 6.07812 99.8436 6.14453C100.035 6.21094 100.279 6.27734 100.576 6.34375C101.096 6.46094 101.523 6.60156 101.859 6.76562C102.195 6.92969 102.445 7.13086 102.609 7.36914C102.773 7.60742 102.855 7.89648 102.855 8.23633C102.855 8.51367 102.797 8.76758 102.68 8.99805C102.566 9.22852 102.4 9.42773 102.181 9.5957C101.967 9.75977 101.709 9.88867 101.408 9.98242C101.111 10.0723 100.777 10.1172 100.406 10.1172C99.8475 10.1172 99.3748 10.0176 98.9881 9.81836C98.6014 9.61914 98.3084 9.36133 98.1092 9.04492C97.91 8.72852 97.8104 8.39453 97.8104 8.04297H98.9002C98.9159 8.33984 99.0018 8.57617 99.158 8.75195C99.3143 8.92383 99.5057 9.04688 99.7323 9.12109C99.9588 9.19141 100.183 9.22656 100.406 9.22656C100.703 9.22656 100.951 9.1875 101.15 9.10938C101.353 9.03125 101.508 8.92383 101.613 8.78711C101.719 8.65039 101.771 8.49414 101.771 8.31836ZM111.954 8.91602V5.65234C111.954 5.40234 111.903 5.18555 111.802 5.00195C111.704 4.81445 111.556 4.66992 111.356 4.56836C111.157 4.4668 110.911 4.41602 110.618 4.41602C110.345 4.41602 110.104 4.46289 109.897 4.55664C109.694 4.65039 109.534 4.77344 109.417 4.92578C109.304 5.07812 109.247 5.24219 109.247 5.41797H108.163C108.163 5.19141 108.222 4.9668 108.339 4.74414C108.456 4.52148 108.624 4.32031 108.843 4.14062C109.065 3.95703 109.331 3.8125 109.64 3.70703C109.952 3.59766 110.3 3.54297 110.683 3.54297C111.143 3.54297 111.55 3.62109 111.901 3.77734C112.257 3.93359 112.534 4.16992 112.733 4.48633C112.936 4.79883 113.038 5.19141 113.038 5.66406V8.61719C113.038 8.82812 113.056 9.05273 113.091 9.29102C113.13 9.5293 113.186 9.73438 113.261 9.90625V10H112.13C112.075 9.875 112.032 9.70898 112.001 9.50195C111.97 9.29102 111.954 9.0957 111.954 8.91602ZM112.141 6.15625L112.153 6.91797H111.058C110.749 6.91797 110.474 6.94336 110.231 6.99414C109.989 7.04102 109.786 7.11328 109.622 7.21094C109.458 7.30859 109.333 7.43164 109.247 7.58008C109.161 7.72461 109.118 7.89453 109.118 8.08984C109.118 8.28906 109.163 8.4707 109.253 8.63477C109.343 8.79883 109.477 8.92969 109.657 9.02734C109.841 9.12109 110.065 9.16797 110.331 9.16797C110.663 9.16797 110.956 9.09766 111.21 8.95703C111.464 8.81641 111.665 8.64453 111.813 8.44141C111.966 8.23828 112.048 8.04102 112.059 7.84961L112.522 8.37109C112.495 8.53516 112.421 8.7168 112.3 8.91602C112.179 9.11523 112.016 9.30664 111.813 9.49023C111.614 9.66992 111.376 9.82031 111.099 9.94141C110.825 10.0586 110.516 10.1172 110.173 10.1172C109.743 10.1172 109.366 10.0332 109.042 9.86523C108.722 9.69727 108.472 9.47266 108.292 9.19141C108.116 8.90625 108.028 8.58789 108.028 8.23633C108.028 7.89648 108.095 7.59766 108.227 7.33984C108.36 7.07812 108.552 6.86133 108.802 6.68945C109.052 6.51367 109.352 6.38086 109.704 6.29102C110.056 6.20117 110.448 6.15625 110.882 6.15625H112.141ZM116.307 5.01367V10H115.223V3.66016H116.248L116.307 5.01367ZM116.049 6.58984L115.598 6.57227C115.602 6.13867 115.666 5.73828 115.791 5.37109C115.916 5 116.092 4.67773 116.319 4.4043C116.545 4.13086 116.815 3.91992 117.127 3.77148C117.444 3.61914 117.793 3.54297 118.176 3.54297C118.489 3.54297 118.77 3.58594 119.02 3.67188C119.27 3.75391 119.483 3.88672 119.659 4.07031C119.838 4.25391 119.975 4.49219 120.069 4.78516C120.162 5.07422 120.209 5.42773 120.209 5.8457V10H119.12V5.83398C119.12 5.50195 119.071 5.23633 118.973 5.03711C118.875 4.83398 118.733 4.6875 118.545 4.59766C118.358 4.50391 118.127 4.45703 117.854 4.45703C117.584 4.45703 117.338 4.51367 117.116 4.62695C116.897 4.74023 116.707 4.89648 116.547 5.0957C116.391 5.29492 116.268 5.52344 116.178 5.78125C116.092 6.03516 116.049 6.30469 116.049 6.58984ZM126.332 8.76953V1H127.422V10H126.426L126.332 8.76953ZM122.066 6.90039V6.77734C122.066 6.29297 122.125 5.85352 122.242 5.45898C122.363 5.06055 122.533 4.71875 122.752 4.43359C122.975 4.14844 123.238 3.92969 123.543 3.77734C123.851 3.62109 124.195 3.54297 124.574 3.54297C124.973 3.54297 125.32 3.61328 125.617 3.75391C125.918 3.89062 126.172 4.0918 126.379 4.35742C126.59 4.61914 126.756 4.93555 126.877 5.30664C126.998 5.67773 127.082 6.09766 127.129 6.56641V7.10547C127.086 7.57031 127.002 7.98828 126.877 8.35938C126.756 8.73047 126.59 9.04688 126.379 9.30859C126.172 9.57031 125.918 9.77148 125.617 9.91211C125.316 10.0488 124.965 10.1172 124.562 10.1172C124.191 10.1172 123.851 10.0371 123.543 9.87695C123.238 9.7168 122.975 9.49219 122.752 9.20312C122.533 8.91406 122.363 8.57422 122.242 8.18359C122.125 7.78906 122.066 7.36133 122.066 6.90039ZM123.156 6.77734V6.90039C123.156 7.2168 123.187 7.51367 123.25 7.79102C123.316 8.06836 123.418 8.3125 123.555 8.52344C123.691 8.73438 123.865 8.90039 124.076 9.02148C124.287 9.13867 124.539 9.19727 124.832 9.19727C125.191 9.19727 125.486 9.12109 125.717 8.96875C125.951 8.81641 126.139 8.61523 126.279 8.36523C126.42 8.11523 126.529 7.84375 126.607 7.55078V6.13867C126.56 5.92383 126.492 5.7168 126.402 5.51758C126.316 5.31445 126.203 5.13477 126.062 4.97852C125.926 4.81836 125.756 4.69141 125.553 4.59766C125.353 4.50391 125.117 4.45703 124.844 4.45703C124.547 4.45703 124.291 4.51953 124.076 4.64453C123.865 4.76562 123.691 4.93359 123.555 5.14844C123.418 5.35938 123.316 5.60547 123.25 5.88672C123.187 6.16406 123.156 6.46094 123.156 6.77734ZM135.583 9.22656C135.841 9.22656 136.079 9.17383 136.298 9.06836C136.517 8.96289 136.696 8.81836 136.837 8.63477C136.977 8.44727 137.058 8.23438 137.077 7.99609H138.108C138.089 8.37109 137.962 8.7207 137.727 9.04492C137.497 9.36523 137.194 9.625 136.819 9.82422C136.444 10.0195 136.032 10.1172 135.583 10.1172C135.106 10.1172 134.69 10.0332 134.335 9.86523C133.983 9.69727 133.69 9.4668 133.456 9.17383C133.226 8.88086 133.052 8.54492 132.935 8.16602C132.821 7.7832 132.765 7.37891 132.765 6.95312V6.70703C132.765 6.28125 132.821 5.87891 132.935 5.5C133.052 5.11719 133.226 4.7793 133.456 4.48633C133.69 4.19336 133.983 3.96289 134.335 3.79492C134.69 3.62695 135.106 3.54297 135.583 3.54297C136.079 3.54297 136.513 3.64453 136.884 3.84766C137.255 4.04688 137.546 4.32031 137.757 4.66797C137.972 5.01172 138.089 5.40234 138.108 5.83984H137.077C137.058 5.57812 136.983 5.3418 136.854 5.13086C136.729 4.91992 136.558 4.75195 136.339 4.62695C136.124 4.49805 135.872 4.43359 135.583 4.43359C135.251 4.43359 134.972 4.5 134.745 4.63281C134.522 4.76172 134.345 4.9375 134.212 5.16016C134.083 5.37891 133.989 5.62305 133.931 5.89258C133.876 6.1582 133.849 6.42969 133.849 6.70703V6.95312C133.849 7.23047 133.876 7.50391 133.931 7.77344C133.985 8.04297 134.077 8.28711 134.206 8.50586C134.339 8.72461 134.517 8.90039 134.739 9.0332C134.966 9.16211 135.247 9.22656 135.583 9.22656ZM139.52 6.90039V6.76562C139.52 6.30859 139.586 5.88477 139.719 5.49414C139.852 5.09961 140.043 4.75781 140.293 4.46875C140.543 4.17578 140.846 3.94922 141.202 3.78906C141.557 3.625 141.956 3.54297 142.397 3.54297C142.842 3.54297 143.243 3.625 143.598 3.78906C143.958 3.94922 144.262 4.17578 144.512 4.46875C144.766 4.75781 144.959 5.09961 145.092 5.49414C145.225 5.88477 145.291 6.30859 145.291 6.76562V6.90039C145.291 7.35742 145.225 7.78125 145.092 8.17188C144.959 8.5625 144.766 8.9043 144.512 9.19727C144.262 9.48633 143.959 9.71289 143.604 9.87695C143.252 10.0371 142.854 10.1172 142.409 10.1172C141.963 10.1172 141.563 10.0371 141.208 9.87695C140.852 9.71289 140.547 9.48633 140.293 9.19727C140.043 8.9043 139.852 8.5625 139.719 8.17188C139.586 7.78125 139.52 7.35742 139.52 6.90039ZM140.604 6.76562V6.90039C140.604 7.2168 140.641 7.51562 140.715 7.79688C140.79 8.07422 140.901 8.32031 141.049 8.53516C141.202 8.75 141.391 8.91992 141.618 9.04492C141.844 9.16602 142.108 9.22656 142.409 9.22656C142.706 9.22656 142.965 9.16602 143.188 9.04492C143.415 8.91992 143.602 8.75 143.75 8.53516C143.899 8.32031 144.01 8.07422 144.084 7.79688C144.163 7.51562 144.202 7.2168 144.202 6.90039V6.76562C144.202 6.45312 144.163 6.1582 144.084 5.88086C144.01 5.59961 143.897 5.35156 143.745 5.13672C143.596 4.91797 143.409 4.74609 143.182 4.62109C142.959 4.49609 142.698 4.43359 142.397 4.43359C142.1 4.43359 141.838 4.49609 141.612 4.62109C141.389 4.74609 141.202 4.91797 141.049 5.13672C140.901 5.35156 140.79 5.59961 140.715 5.88086C140.641 6.1582 140.604 6.45312 140.604 6.76562ZM148.215 5.01367V10H147.131V3.66016H148.156L148.215 5.01367ZM147.957 6.58984L147.506 6.57227C147.51 6.13867 147.574 5.73828 147.699 5.37109C147.824 5 148 4.67773 148.227 4.4043C148.453 4.13086 148.723 3.91992 149.035 3.77148C149.352 3.61914 149.701 3.54297 150.084 3.54297C150.396 3.54297 150.678 3.58594 150.928 3.67188C151.178 3.75391 151.391 3.88672 151.566 4.07031C151.746 4.25391 151.883 4.49219 151.977 4.78516C152.07 5.07422 152.117 5.42773 152.117 5.8457V10H151.027V5.83398C151.027 5.50195 150.979 5.23633 150.881 5.03711C150.783 4.83398 150.641 4.6875 150.453 4.59766C150.266 4.50391 150.035 4.45703 149.762 4.45703C149.492 4.45703 149.246 4.51367 149.023 4.62695C148.805 4.74023 148.615 4.89648 148.455 5.0957C148.299 5.29492 148.176 5.52344 148.086 5.78125C148 6.03516 147.957 6.30469 147.957 6.58984ZM158.24 8.76953V1H159.33V10H158.334L158.24 8.76953ZM153.974 6.90039V6.77734C153.974 6.29297 154.033 5.85352 154.15 5.45898C154.271 5.06055 154.441 4.71875 154.66 4.43359C154.882 4.14844 155.146 3.92969 155.451 3.77734C155.759 3.62109 156.103 3.54297 156.482 3.54297C156.88 3.54297 157.228 3.61328 157.525 3.75391C157.826 3.89062 158.08 4.0918 158.287 4.35742C158.498 4.61914 158.664 4.93555 158.785 5.30664C158.906 5.67773 158.99 6.09766 159.037 6.56641V7.10547C158.994 7.57031 158.91 7.98828 158.785 8.35938C158.664 8.73047 158.498 9.04688 158.287 9.30859C158.08 9.57031 157.826 9.77148 157.525 9.91211C157.224 10.0488 156.873 10.1172 156.47 10.1172C156.099 10.1172 155.759 10.0371 155.451 9.87695C155.146 9.7168 154.882 9.49219 154.66 9.20312C154.441 8.91406 154.271 8.57422 154.15 8.18359C154.033 7.78906 153.974 7.36133 153.974 6.90039ZM155.064 6.77734V6.90039C155.064 7.2168 155.095 7.51367 155.158 7.79102C155.224 8.06836 155.326 8.3125 155.462 8.52344C155.599 8.73438 155.773 8.90039 155.984 9.02148C156.195 9.13867 156.447 9.19727 156.74 9.19727C157.099 9.19727 157.394 9.12109 157.625 8.96875C157.859 8.81641 158.046 8.61523 158.187 8.36523C158.328 8.11523 158.437 7.84375 158.515 7.55078V6.13867C158.468 5.92383 158.4 5.7168 158.31 5.51758C158.224 5.31445 158.111 5.13477 157.97 4.97852C157.834 4.81836 157.664 4.69141 157.46 4.59766C157.261 4.50391 157.025 4.45703 156.751 4.45703C156.455 4.45703 156.199 4.51953 155.984 4.64453C155.773 4.76562 155.599 4.93359 155.462 5.14844C155.326 5.35938 155.224 5.60547 155.158 5.88672C155.095 6.16406 155.064 6.46094 155.064 6.77734ZM162.675 3.66016V10H161.585V3.66016H162.675ZM161.503 1.97852C161.503 1.80273 161.556 1.6543 161.661 1.5332C161.771 1.41211 161.931 1.35156 162.142 1.35156C162.349 1.35156 162.507 1.41211 162.616 1.5332C162.73 1.6543 162.786 1.80273 162.786 1.97852C162.786 2.14648 162.73 2.29102 162.616 2.41211C162.507 2.5293 162.349 2.58789 162.142 2.58789C161.931 2.58789 161.771 2.5293 161.661 2.41211C161.556 2.29102 161.503 2.14648 161.503 1.97852ZM167.549 3.66016V4.49219H164.122V3.66016H167.549ZM165.282 2.11914H166.366V8.42969C166.366 8.64453 166.399 8.80664 166.465 8.91602C166.532 9.02539 166.618 9.09766 166.723 9.13281C166.829 9.16797 166.942 9.18555 167.063 9.18555C167.153 9.18555 167.247 9.17773 167.344 9.16211C167.446 9.14258 167.522 9.12695 167.573 9.11523L167.579 10C167.493 10.0273 167.379 10.0527 167.239 10.0762C167.102 10.1035 166.936 10.1172 166.741 10.1172C166.475 10.1172 166.231 10.0645 166.008 9.95898C165.786 9.85352 165.608 9.67773 165.475 9.43164C165.346 9.18164 165.282 8.8457 165.282 8.42383V2.11914ZM170.479 3.66016V10H169.389V3.66016H170.479ZM169.307 1.97852C169.307 1.80273 169.359 1.6543 169.465 1.5332C169.574 1.41211 169.734 1.35156 169.945 1.35156C170.152 1.35156 170.311 1.41211 170.42 1.5332C170.533 1.6543 170.59 1.80273 170.59 1.97852C170.59 2.14648 170.533 2.29102 170.42 2.41211C170.311 2.5293 170.152 2.58789 169.945 2.58789C169.734 2.58789 169.574 2.5293 169.465 2.41211C169.359 2.29102 169.307 2.14648 169.307 1.97852ZM172.412 6.90039V6.76562C172.412 6.30859 172.478 5.88477 172.611 5.49414C172.744 5.09961 172.935 4.75781 173.185 4.46875C173.435 4.17578 173.738 3.94922 174.093 3.78906C174.449 3.625 174.847 3.54297 175.289 3.54297C175.734 3.54297 176.134 3.625 176.49 3.78906C176.849 3.94922 177.154 4.17578 177.404 4.46875C177.658 4.75781 177.851 5.09961 177.984 5.49414C178.117 5.88477 178.183 6.30859 178.183 6.76562V6.90039C178.183 7.35742 178.117 7.78125 177.984 8.17188C177.851 8.5625 177.658 8.9043 177.404 9.19727C177.154 9.48633 176.851 9.71289 176.496 9.87695C176.144 10.0371 175.746 10.1172 175.3 10.1172C174.855 10.1172 174.455 10.0371 174.099 9.87695C173.744 9.71289 173.439 9.48633 173.185 9.19727C172.935 8.9043 172.744 8.5625 172.611 8.17188C172.478 7.78125 172.412 7.35742 172.412 6.90039ZM173.496 6.76562V6.90039C173.496 7.2168 173.533 7.51562 173.607 7.79688C173.681 8.07422 173.793 8.32031 173.941 8.53516C174.093 8.75 174.283 8.91992 174.509 9.04492C174.736 9.16602 175 9.22656 175.3 9.22656C175.597 9.22656 175.857 9.16602 176.08 9.04492C176.306 8.91992 176.494 8.75 176.642 8.53516C176.791 8.32031 176.902 8.07422 176.976 7.79688C177.054 7.51562 177.093 7.2168 177.093 6.90039V6.76562C177.093 6.45312 177.054 6.1582 176.976 5.88086C176.902 5.59961 176.789 5.35156 176.636 5.13672C176.488 4.91797 176.3 4.74609 176.074 4.62109C175.851 4.49609 175.589 4.43359 175.289 4.43359C174.992 4.43359 174.73 4.49609 174.504 4.62109C174.281 4.74609 174.093 4.91797 173.941 5.13672C173.793 5.35156 173.681 5.59961 173.607 5.88086C173.533 6.1582 173.496 6.45312 173.496 6.76562ZM181.107 5.01367V10H180.023V3.66016H181.048L181.107 5.01367ZM180.849 6.58984L180.398 6.57227C180.401 6.13867 180.466 5.73828 180.591 5.37109C180.716 5 180.892 4.67773 181.118 4.4043C181.345 4.13086 181.614 3.91992 181.927 3.77148C182.243 3.61914 182.593 3.54297 182.976 3.54297C183.288 3.54297 183.569 3.58594 183.819 3.67188C184.069 3.75391 184.282 3.88672 184.458 4.07031C184.638 4.25391 184.775 4.49219 184.868 4.78516C184.962 5.07422 185.009 5.42773 185.009 5.8457V10H183.919V5.83398C183.919 5.50195 183.87 5.23633 183.773 5.03711C183.675 4.83398 183.532 4.6875 183.345 4.59766C183.157 4.50391 182.927 4.45703 182.653 4.45703C182.384 4.45703 182.138 4.51367 181.915 4.62695C181.696 4.74023 181.507 4.89648 181.347 5.0957C181.191 5.29492 181.068 5.52344 180.978 5.78125C180.892 6.03516 180.849 6.30469 180.849 6.58984ZM190.827 8.31836C190.827 8.16211 190.792 8.01758 190.721 7.88477C190.655 7.74805 190.516 7.625 190.305 7.51562C190.098 7.40234 189.786 7.30469 189.368 7.22266C189.016 7.14844 188.698 7.06055 188.413 6.95898C188.131 6.85742 187.891 6.73438 187.692 6.58984C187.497 6.44531 187.346 6.27539 187.241 6.08008C187.135 5.88477 187.083 5.65625 187.083 5.39453C187.083 5.14453 187.137 4.9082 187.247 4.68555C187.36 4.46289 187.518 4.26562 187.721 4.09375C187.928 3.92188 188.176 3.78711 188.465 3.68945C188.755 3.5918 189.077 3.54297 189.432 3.54297C189.94 3.54297 190.374 3.63281 190.733 3.8125C191.092 3.99219 191.368 4.23242 191.559 4.5332C191.751 4.83008 191.846 5.16016 191.846 5.52344H190.762C190.762 5.34766 190.71 5.17773 190.604 5.01367C190.503 4.8457 190.352 4.70703 190.153 4.59766C189.958 4.48828 189.717 4.43359 189.432 4.43359C189.131 4.43359 188.887 4.48047 188.7 4.57422C188.516 4.66406 188.381 4.7793 188.296 4.91992C188.214 5.06055 188.173 5.20898 188.173 5.36523C188.173 5.48242 188.192 5.58789 188.231 5.68164C188.274 5.77148 188.348 5.85547 188.454 5.93359C188.559 6.00781 188.708 6.07812 188.899 6.14453C189.09 6.21094 189.335 6.27734 189.631 6.34375C190.151 6.46094 190.579 6.60156 190.915 6.76562C191.251 6.92969 191.501 7.13086 191.665 7.36914C191.829 7.60742 191.911 7.89648 191.911 8.23633C191.911 8.51367 191.852 8.76758 191.735 8.99805C191.622 9.22852 191.456 9.42773 191.237 9.5957C191.022 9.75977 190.764 9.88867 190.464 9.98242C190.167 10.0723 189.833 10.1172 189.462 10.1172C188.903 10.1172 188.43 10.0176 188.044 9.81836C187.657 9.61914 187.364 9.36133 187.165 9.04492C186.965 8.72852 186.866 8.39453 186.866 8.04297H187.956C187.971 8.33984 188.057 8.57617 188.214 8.75195C188.37 8.92383 188.561 9.04688 188.788 9.12109C189.014 9.19141 189.239 9.22656 189.462 9.22656C189.758 9.22656 190.006 9.1875 190.206 9.10938C190.409 9.03125 190.563 8.92383 190.669 8.78711C190.774 8.65039 190.827 8.49414 190.827 8.31836ZM196.984 6.90039V6.76562C196.984 6.30859 197.05 5.88477 197.183 5.49414C197.316 5.09961 197.507 4.75781 197.757 4.46875C198.007 4.17578 198.31 3.94922 198.666 3.78906C199.021 3.625 199.42 3.54297 199.861 3.54297C200.306 3.54297 200.707 3.625 201.062 3.78906C201.422 3.94922 201.726 4.17578 201.976 4.46875C202.23 4.75781 202.424 5.09961 202.556 5.49414C202.689 5.88477 202.756 6.30859 202.756 6.76562V6.90039C202.756 7.35742 202.689 7.78125 202.556 8.17188C202.424 8.5625 202.23 8.9043 201.976 9.19727C201.726 9.48633 201.424 9.71289 201.068 9.87695C200.716 10.0371 200.318 10.1172 199.873 10.1172C199.427 10.1172 199.027 10.0371 198.672 9.87695C198.316 9.71289 198.011 9.48633 197.757 9.19727C197.507 8.9043 197.316 8.5625 197.183 8.17188C197.05 7.78125 196.984 7.35742 196.984 6.90039ZM198.068 6.76562V6.90039C198.068 7.2168 198.105 7.51562 198.179 7.79688C198.254 8.07422 198.365 8.32031 198.513 8.53516C198.666 8.75 198.855 8.91992 199.082 9.04492C199.308 9.16602 199.572 9.22656 199.873 9.22656C200.17 9.22656 200.429 9.16602 200.652 9.04492C200.879 8.91992 201.066 8.75 201.215 8.53516C201.363 8.32031 201.474 8.07422 201.549 7.79688C201.627 7.51562 201.666 7.2168 201.666 6.90039V6.76562C201.666 6.45312 201.627 6.1582 201.549 5.88086C201.474 5.59961 201.361 5.35156 201.209 5.13672C201.06 4.91797 200.873 4.74609 200.646 4.62109C200.424 4.49609 200.162 4.43359 199.861 4.43359C199.564 4.43359 199.302 4.49609 199.076 4.62109C198.853 4.74609 198.666 4.91797 198.513 5.13672C198.365 5.35156 198.254 5.59961 198.179 5.88086C198.105 6.1582 198.068 6.45312 198.068 6.76562ZM206.212 10H205.128V2.99219C205.128 2.53516 205.21 2.15039 205.374 1.83789C205.542 1.52148 205.782 1.2832 206.095 1.12305C206.407 0.958984 206.779 0.876953 207.208 0.876953C207.333 0.876953 207.458 0.884766 207.583 0.900391C207.712 0.916016 207.837 0.939453 207.958 0.970703L207.9 1.85547C207.818 1.83594 207.724 1.82227 207.618 1.81445C207.517 1.80664 207.415 1.80273 207.314 1.80273C207.083 1.80273 206.884 1.84961 206.716 1.94336C206.552 2.0332 206.427 2.16602 206.341 2.3418C206.255 2.51758 206.212 2.73438 206.212 2.99219V10ZM207.56 3.66016V4.49219H204.126V3.66016H207.56ZM215.358 3.66016V4.49219H211.93V3.66016H215.358ZM213.09 2.11914H214.174V8.42969C214.174 8.64453 214.207 8.80664 214.274 8.91602C214.34 9.02539 214.426 9.09766 214.531 9.13281C214.637 9.16797 214.75 9.18555 214.871 9.18555C214.961 9.18555 215.055 9.17773 215.153 9.16211C215.254 9.14258 215.33 9.12695 215.381 9.11523L215.387 10C215.301 10.0273 215.188 10.0527 215.047 10.0762C214.91 10.1035 214.744 10.1172 214.549 10.1172C214.283 10.1172 214.039 10.0645 213.817 9.95898C213.594 9.85352 213.416 9.67773 213.283 9.43164C213.155 9.18164 213.09 8.8457 213.09 8.42383V2.11914ZM218.193 1V10H217.109V1H218.193ZM217.935 6.58984L217.484 6.57227C217.488 6.13867 217.553 5.73828 217.678 5.37109C217.803 5 217.978 4.67773 218.205 4.4043C218.431 4.13086 218.701 3.91992 219.013 3.77148C219.33 3.61914 219.679 3.54297 220.062 3.54297C220.375 3.54297 220.656 3.58594 220.906 3.67188C221.156 3.75391 221.369 3.88672 221.545 4.07031C221.724 4.25391 221.861 4.49219 221.955 4.78516C222.049 5.07422 222.095 5.42773 222.095 5.8457V10H221.006V5.83398C221.006 5.50195 220.957 5.23633 220.859 5.03711C220.761 4.83398 220.619 4.6875 220.431 4.59766C220.244 4.50391 220.013 4.45703 219.74 4.45703C219.47 4.45703 219.224 4.51367 219.002 4.62695C218.783 4.74023 218.594 4.89648 218.433 5.0957C218.277 5.29492 218.154 5.52344 218.064 5.78125C217.978 6.03516 217.935 6.30469 217.935 6.58984ZM226.829 10.1172C226.388 10.1172 225.988 10.043 225.628 9.89453C225.273 9.74219 224.966 9.5293 224.708 9.25586C224.454 8.98242 224.259 8.6582 224.122 8.2832C223.986 7.9082 223.917 7.49805 223.917 7.05273V6.80664C223.917 6.29102 223.993 5.83203 224.146 5.42969C224.298 5.02344 224.505 4.67969 224.767 4.39844C225.029 4.11719 225.325 3.9043 225.658 3.75977C225.99 3.61523 226.333 3.54297 226.689 3.54297C227.142 3.54297 227.533 3.62109 227.861 3.77734C228.193 3.93359 228.464 4.15234 228.675 4.43359C228.886 4.71094 229.042 5.03906 229.144 5.41797C229.245 5.79297 229.296 6.20312 229.296 6.64844V7.13477H224.562V6.25H228.212V6.16797C228.197 5.88672 228.138 5.61328 228.036 5.34766C227.939 5.08203 227.783 4.86328 227.568 4.69141C227.353 4.51953 227.06 4.43359 226.689 4.43359C226.443 4.43359 226.216 4.48633 226.009 4.5918C225.802 4.69336 225.624 4.8457 225.476 5.04883C225.327 5.25195 225.212 5.5 225.13 5.79297C225.048 6.08594 225.007 6.42383 225.007 6.80664V7.05273C225.007 7.35352 225.048 7.63672 225.13 7.90234C225.216 8.16406 225.339 8.39453 225.499 8.59375C225.663 8.79297 225.861 8.94922 226.091 9.0625C226.325 9.17578 226.591 9.23242 226.888 9.23242C227.271 9.23242 227.595 9.1543 227.861 8.99805C228.126 8.8418 228.359 8.63281 228.558 8.37109L229.214 8.89258C229.077 9.09961 228.904 9.29688 228.693 9.48438C228.482 9.67188 228.222 9.82422 227.913 9.94141C227.609 10.0586 227.247 10.1172 226.829 10.1172Z" fill="#8E8F99"/>
<path d="M237.809 6.6543H235.53V5.73438H237.809C238.25 5.73438 238.608 5.66406 238.881 5.52344C239.155 5.38281 239.354 5.1875 239.479 4.9375C239.608 4.6875 239.672 4.40234 239.672 4.08203C239.672 3.78906 239.608 3.51367 239.479 3.25586C239.354 2.99805 239.155 2.79102 238.881 2.63477C238.608 2.47461 238.25 2.39453 237.809 2.39453H235.793V10H234.662V1.46875H237.809C238.453 1.46875 238.998 1.58008 239.444 1.80273C239.889 2.02539 240.227 2.33398 240.457 2.72852C240.688 3.11914 240.803 3.56641 240.803 4.07031C240.803 4.61719 240.688 5.08398 240.457 5.4707C240.227 5.85742 239.889 6.15234 239.444 6.35547C238.998 6.55469 238.453 6.6543 237.809 6.6543ZM243.633 4.65625V10H242.549V3.66016H243.603L243.633 4.65625ZM245.613 3.625L245.607 4.63281C245.517 4.61328 245.431 4.60156 245.349 4.59766C245.271 4.58984 245.181 4.58594 245.08 4.58594C244.83 4.58594 244.609 4.625 244.418 4.70312C244.226 4.78125 244.064 4.89062 243.931 5.03125C243.799 5.17188 243.693 5.33984 243.615 5.53516C243.541 5.72656 243.492 5.9375 243.469 6.16797L243.164 6.34375C243.164 5.96094 243.201 5.60156 243.275 5.26562C243.353 4.92969 243.473 4.63281 243.633 4.375C243.793 4.11328 243.996 3.91016 244.242 3.76562C244.492 3.61719 244.789 3.54297 245.133 3.54297C245.211 3.54297 245.301 3.55273 245.402 3.57227C245.504 3.58789 245.574 3.60547 245.613 3.625ZM248.273 3.66016V10H247.183V3.66016H248.273ZM247.101 1.97852C247.101 1.80273 247.154 1.6543 247.259 1.5332C247.369 1.41211 247.529 1.35156 247.74 1.35156C247.947 1.35156 248.105 1.41211 248.214 1.5332C248.327 1.6543 248.384 1.80273 248.384 1.97852C248.384 2.14648 248.327 2.29102 248.214 2.41211C248.105 2.5293 247.947 2.58789 247.74 2.58789C247.529 2.58789 247.369 2.5293 247.259 2.41211C247.154 2.29102 247.101 2.14648 247.101 1.97852ZM252.421 9.02148L254.155 3.66016H255.263L252.983 10H252.257L252.421 9.02148ZM250.974 3.66016L252.761 9.05078L252.884 10H252.157L249.86 3.66016H250.974ZM260.43 8.91602V5.65234C260.43 5.40234 260.379 5.18555 260.278 5.00195C260.18 4.81445 260.032 4.66992 259.832 4.56836C259.633 4.4668 259.387 4.41602 259.094 4.41602C258.821 4.41602 258.58 4.46289 258.373 4.55664C258.17 4.65039 258.01 4.77344 257.893 4.92578C257.78 5.07812 257.723 5.24219 257.723 5.41797H256.639C256.639 5.19141 256.698 4.9668 256.815 4.74414C256.932 4.52148 257.1 4.32031 257.319 4.14062C257.541 3.95703 257.807 3.8125 258.116 3.70703C258.428 3.59766 258.776 3.54297 259.159 3.54297C259.62 3.54297 260.026 3.62109 260.377 3.77734C260.733 3.93359 261.01 4.16992 261.209 4.48633C261.413 4.79883 261.514 5.19141 261.514 5.66406V8.61719C261.514 8.82812 261.532 9.05273 261.567 9.29102C261.606 9.5293 261.663 9.73438 261.737 9.90625V10H260.606C260.551 9.875 260.508 9.70898 260.477 9.50195C260.446 9.29102 260.43 9.0957 260.43 8.91602ZM260.618 6.15625L260.629 6.91797H259.534C259.225 6.91797 258.95 6.94336 258.707 6.99414C258.465 7.04102 258.262 7.11328 258.098 7.21094C257.934 7.30859 257.809 7.43164 257.723 7.58008C257.637 7.72461 257.594 7.89453 257.594 8.08984C257.594 8.28906 257.639 8.4707 257.729 8.63477C257.819 8.79883 257.954 8.92969 258.133 9.02734C258.317 9.12109 258.541 9.16797 258.807 9.16797C259.139 9.16797 259.432 9.09766 259.686 8.95703C259.94 8.81641 260.141 8.64453 260.289 8.44141C260.442 8.23828 260.524 8.04102 260.536 7.84961L260.998 8.37109C260.971 8.53516 260.897 8.7168 260.776 8.91602C260.655 9.11523 260.493 9.30664 260.289 9.49023C260.09 9.66992 259.852 9.82031 259.575 9.94141C259.301 10.0586 258.993 10.1172 258.649 10.1172C258.219 10.1172 257.842 10.0332 257.518 9.86523C257.198 9.69727 256.948 9.47266 256.768 9.19141C256.592 8.90625 256.504 8.58789 256.504 8.23633C256.504 7.89648 256.571 7.59766 256.704 7.33984C256.836 7.07812 257.028 6.86133 257.278 6.68945C257.528 6.51367 257.829 6.38086 258.18 6.29102C258.532 6.20117 258.924 6.15625 259.358 6.15625H260.618ZM266.236 9.22656C266.494 9.22656 266.732 9.17383 266.951 9.06836C267.17 8.96289 267.35 8.81836 267.49 8.63477C267.631 8.44727 267.711 8.23438 267.73 7.99609H268.762C268.742 8.37109 268.615 8.7207 268.381 9.04492C268.15 9.36523 267.848 9.625 267.473 9.82422C267.098 10.0195 266.685 10.1172 266.236 10.1172C265.76 10.1172 265.344 10.0332 264.988 9.86523C264.637 9.69727 264.344 9.4668 264.109 9.17383C263.879 8.88086 263.705 8.54492 263.588 8.16602C263.475 7.7832 263.418 7.37891 263.418 6.95312V6.70703C263.418 6.28125 263.475 5.87891 263.588 5.5C263.705 5.11719 263.879 4.7793 264.109 4.48633C264.344 4.19336 264.637 3.96289 264.988 3.79492C265.344 3.62695 265.76 3.54297 266.236 3.54297C266.732 3.54297 267.166 3.64453 267.537 3.84766C267.908 4.04688 268.199 4.32031 268.41 4.66797C268.625 5.01172 268.742 5.40234 268.762 5.83984H267.73C267.711 5.57812 267.637 5.3418 267.508 5.13086C267.383 4.91992 267.211 4.75195 266.992 4.62695C266.777 4.49805 266.525 4.43359 266.236 4.43359C265.904 4.43359 265.625 4.5 265.398 4.63281C265.176 4.76172 264.998 4.9375 264.865 5.16016C264.736 5.37891 264.642 5.62305 264.584 5.89258C264.529 6.1582 264.502 6.42969 264.502 6.70703V6.95312C264.502 7.23047 264.529 7.50391 264.584 7.77344C264.639 8.04297 264.73 8.28711 264.859 8.50586C264.992 8.72461 265.17 8.90039 265.392 9.0332C265.619 9.16211 265.9 9.22656 266.236 9.22656ZM272.242 9.34375L274.005 3.66016H275.165L272.622 10.9785C272.564 11.1348 272.486 11.3027 272.388 11.4824C272.294 11.666 272.173 11.8398 272.025 12.0039C271.876 12.168 271.697 12.3008 271.486 12.4023C271.279 12.5078 271.031 12.5605 270.742 12.5605C270.656 12.5605 270.546 12.5488 270.414 12.5254C270.281 12.502 270.187 12.4824 270.132 12.4668L270.126 11.5879C270.158 11.5918 270.206 11.5957 270.273 11.5996C270.343 11.6074 270.392 11.6113 270.419 11.6113C270.665 11.6113 270.874 11.5781 271.046 11.5117C271.218 11.4492 271.363 11.3418 271.48 11.1895C271.601 11.041 271.705 10.8359 271.79 10.5742L272.242 9.34375ZM270.947 3.66016L272.593 8.58203L272.874 9.72461L272.095 10.123L269.763 3.66016H270.947ZM283.391 6.6543H281.112V5.73438H283.391C283.832 5.73438 284.19 5.66406 284.463 5.52344C284.737 5.38281 284.936 5.1875 285.061 4.9375C285.19 4.6875 285.254 4.40234 285.254 4.08203C285.254 3.78906 285.19 3.51367 285.061 3.25586C284.936 2.99805 284.737 2.79102 284.463 2.63477C284.19 2.47461 283.832 2.39453 283.391 2.39453H281.375V10H280.245V1.46875H283.391C284.036 1.46875 284.581 1.58008 285.026 1.80273C285.471 2.02539 285.809 2.33398 286.04 2.72852C286.27 3.11914 286.385 3.56641 286.385 4.07031C286.385 4.61719 286.27 5.08398 286.04 5.4707C285.809 5.85742 285.471 6.15234 285.026 6.35547C284.581 6.55469 284.036 6.6543 283.391 6.6543ZM287.762 6.90039V6.76562C287.762 6.30859 287.828 5.88477 287.961 5.49414C288.094 5.09961 288.285 4.75781 288.535 4.46875C288.785 4.17578 289.088 3.94922 289.443 3.78906C289.799 3.625 290.197 3.54297 290.639 3.54297C291.084 3.54297 291.484 3.625 291.84 3.78906C292.199 3.94922 292.504 4.17578 292.754 4.46875C293.008 4.75781 293.201 5.09961 293.334 5.49414C293.467 5.88477 293.533 6.30859 293.533 6.76562V6.90039C293.533 7.35742 293.467 7.78125 293.334 8.17188C293.201 8.5625 293.008 8.9043 292.754 9.19727C292.504 9.48633 292.201 9.71289 291.846 9.87695C291.494 10.0371 291.096 10.1172 290.65 10.1172C290.205 10.1172 289.805 10.0371 289.449 9.87695C289.094 9.71289 288.789 9.48633 288.535 9.19727C288.285 8.9043 288.094 8.5625 287.961 8.17188C287.828 7.78125 287.762 7.35742 287.762 6.90039ZM288.846 6.76562V6.90039C288.846 7.2168 288.883 7.51562 288.957 7.79688C289.031 8.07422 289.143 8.32031 289.291 8.53516C289.443 8.75 289.633 8.91992 289.859 9.04492C290.086 9.16602 290.35 9.22656 290.65 9.22656C290.947 9.22656 291.207 9.16602 291.43 9.04492C291.656 8.91992 291.844 8.75 291.992 8.53516C292.141 8.32031 292.252 8.07422 292.326 7.79688C292.404 7.51562 292.443 7.2168 292.443 6.90039V6.76562C292.443 6.45312 292.404 6.1582 292.326 5.88086C292.252 5.59961 292.139 5.35156 291.986 5.13672C291.838 4.91797 291.65 4.74609 291.424 4.62109C291.201 4.49609 290.939 4.43359 290.639 4.43359C290.342 4.43359 290.08 4.49609 289.854 4.62109C289.631 4.74609 289.443 4.91797 289.291 5.13672C289.143 5.35156 289.031 5.59961 288.957 5.88086C288.883 6.1582 288.846 6.45312 288.846 6.76562ZM296.55 1V10H295.46V1H296.55ZM299.948 3.66016V10H298.858V3.66016H299.948ZM298.776 1.97852C298.776 1.80273 298.829 1.6543 298.935 1.5332C299.044 1.41211 299.204 1.35156 299.415 1.35156C299.622 1.35156 299.78 1.41211 299.89 1.5332C300.003 1.6543 300.06 1.80273 300.06 1.97852C300.06 2.14648 300.003 2.29102 299.89 2.41211C299.78 2.5293 299.622 2.58789 299.415 2.58789C299.204 2.58789 299.044 2.5293 298.935 2.41211C298.829 2.29102 298.776 2.14648 298.776 1.97852ZM304.706 9.22656C304.963 9.22656 305.202 9.17383 305.42 9.06836C305.639 8.96289 305.819 8.81836 305.96 8.63477C306.1 8.44727 306.18 8.23438 306.2 7.99609H307.231C307.211 8.37109 307.085 8.7207 306.85 9.04492C306.62 9.36523 306.317 9.625 305.942 9.82422C305.567 10.0195 305.155 10.1172 304.706 10.1172C304.229 10.1172 303.813 10.0332 303.458 9.86523C303.106 9.69727 302.813 9.4668 302.579 9.17383C302.348 8.88086 302.174 8.54492 302.057 8.16602C301.944 7.7832 301.887 7.37891 301.887 6.95312V6.70703C301.887 6.28125 301.944 5.87891 302.057 5.5C302.174 5.11719 302.348 4.7793 302.579 4.48633C302.813 4.19336 303.106 3.96289 303.458 3.79492C303.813 3.62695 304.229 3.54297 304.706 3.54297C305.202 3.54297 305.635 3.64453 306.006 3.84766C306.378 4.04688 306.669 4.32031 306.879 4.66797C307.094 5.01172 307.211 5.40234 307.231 5.83984H306.2C306.18 5.57812 306.106 5.3418 305.977 5.13086C305.852 4.91992 305.68 4.75195 305.461 4.62695C305.247 4.49805 304.995 4.43359 304.706 4.43359C304.374 4.43359 304.094 4.5 303.868 4.63281C303.645 4.76172 303.467 4.9375 303.335 5.16016C303.206 5.37891 303.112 5.62305 303.053 5.89258C302.999 6.1582 302.971 6.42969 302.971 6.70703V6.95312C302.971 7.23047 302.999 7.50391 303.053 7.77344C303.108 8.04297 303.2 8.28711 303.329 8.50586C303.461 8.72461 303.639 8.90039 303.862 9.0332C304.088 9.16211 304.37 9.22656 304.706 9.22656ZM310.711 9.34375L312.475 3.66016H313.635L311.092 10.9785C311.033 11.1348 310.955 11.3027 310.858 11.4824C310.764 11.666 310.643 11.8398 310.494 12.0039C310.346 12.168 310.166 12.3008 309.955 12.4023C309.748 12.5078 309.5 12.5605 309.211 12.5605C309.125 12.5605 309.016 12.5488 308.883 12.5254C308.75 12.502 308.656 12.4824 308.602 12.4668L308.596 11.5879C308.627 11.5918 308.676 11.5957 308.742 11.5996C308.813 11.6074 308.861 11.6113 308.889 11.6113C309.135 11.6113 309.344 11.5781 309.516 11.5117C309.688 11.4492 309.832 11.3418 309.949 11.1895C310.07 11.041 310.174 10.8359 310.26 10.5742L310.711 9.34375ZM309.416 3.66016L311.063 8.58203L311.344 9.72461L310.565 10.123L308.233 3.66016H309.416Z" fill="#4D5AE5"/>
<path d="M233.672 11.1719H313.781V11.7578H233.672V11.1719Z" fill="#4D5AE5"/>
</svg>
